<svg width="12" height="18" viewBox="0 0 12 18" fill="none" xmlns="http://www.w3.org/2000/svg">
<path d="M2.66669 14.8334V13.1667H4.33335V14.8334H2.66669Z" fill="black"/>
<path d="M5.16669 13.1667V14.8334H6.83335V13.1667H5.16669Z" fill="black"/>
<path d="M7.66669 14.8334V13.1667H9.33335V14.8334H7.66669Z" fill="black"/>
<path d="M2.66669 10.6667V12.3334H4.33335V10.6667H2.66669Z" fill="black"/>
<path d="M5.16669 12.3334V10.6667H6.83335V12.3334H5.16669Z" fill="black"/>
<path d="M7.66669 10.6667V12.3334H9.33335V10.6667H7.66669Z" fill="black"/>
<path fill-rule="evenodd" clip-rule="evenodd" d="M9.33335 3.16675V9.83342H2.66669V3.16675H9.33335ZM4.33335 8.16675V4.83342H7.66669V8.16675H4.33335Z" fill="black"/>
<path fill-rule="evenodd" clip-rule="evenodd" d="M11.8334 2.38243C11.8334 1.4452 11.0982 0.666748 10.1667 0.666748H1.83335C0.901892 0.666748 0.166687 1.4452 0.166687 2.38243V15.6177C0.166687 16.555 0.901892 17.3334 1.83335 17.3334H10.1667C11.0982 17.3334 11.8334 16.555 11.8334 15.6177V2.38243ZM10.1667 2.38243V15.6177C10.1667 15.6344 10.1645 15.6459 10.1631 15.6536C10.1613 15.6632 10.1606 15.6667 10.1667 15.6667H1.83335C1.83946 15.6667 1.83878 15.6632 1.83697 15.6536C1.83553 15.6459 1.83335 15.6344 1.83335 15.6177V2.38243C1.83335 2.36581 1.83553 2.35428 1.83697 2.3466C1.83878 2.337 1.83946 2.33341 1.83335 2.33341H10.1667C10.1606 2.33341 10.1613 2.337 10.1631 2.3466C10.1645 2.35428 10.1667 2.36581 10.1667 2.38243Z" fill="black"/>
</svg>
