<svg width="17" height="11" viewBox="0 0 17 11" fill="none" xmlns="http://www.w3.org/2000/svg">
<path d="M7.43506 0.719727V6.72461C7.43506 7.78255 7.11556 8.6141 6.47656 9.21924C5.83757 9.82438 4.95947 10.127 3.84229 10.127C2.7251 10.127 1.8597 9.82227 1.24609 9.21289C0.636719 8.60352 0.332031 7.76562 0.332031 6.69922V0.719727H1.41113V6.77539C1.41113 7.5498 1.62272 8.14437 2.0459 8.55908C2.46908 8.9738 3.09115 9.18115 3.91211 9.18115C4.69499 9.18115 5.29801 8.9738 5.72119 8.55908C6.14437 8.14014 6.35596 7.54134 6.35596 6.7627V0.719727H7.43506ZM15.7314 10L14.5762 7.04834H10.8564L9.71387 10H8.62207L12.291 0.681641H13.1987L16.8486 10H15.7314ZM14.2397 6.07715L13.1606 3.20166C13.021 2.83773 12.8771 2.39128 12.729 1.8623C12.6359 2.26855 12.5026 2.71501 12.3291 3.20166L11.2373 6.07715H14.2397Z" fill="black"/>
</svg>
