<svg width="18" height="18" viewBox="0 0 18 18" fill="none" xmlns="http://www.w3.org/2000/svg">
<path fill-rule="evenodd" clip-rule="evenodd" d="M7.33305 13.9998C3.65115 13.9998 0.666382 11.0151 0.666382 7.33317C0.666382 3.65127 3.65115 0.666504 7.33305 0.666504C11.0149 0.666504 13.9997 3.65127 13.9997 7.33317C13.9997 8.87377 13.4771 10.2923 12.5996 11.4212L17.0889 15.9105L15.9104 17.089L11.4211 12.5997C10.2922 13.4773 8.87363 13.9998 7.33305 13.9998ZM12.3328 7.3331C12.3328 10.0945 10.0942 12.3331 7.33276 12.3331C4.57134 12.3331 2.33276 10.0945 2.33276 7.3331C2.33276 4.57168 4.57134 2.3331 7.33276 2.3331C10.0942 2.3331 12.3328 4.57168 12.3328 7.3331Z" fill="black"/>
</svg>
